<mxfile host="65bd71144e">
    <diagram id="ubR7-kl9pCVkvoRq7yLE" name="Page-1">
        <mxGraphModel dx="2227" dy="1100" grid="1" gridSize="10" guides="1" tooltips="1" connect="1" arrows="1" fold="1" page="1" pageScale="1" pageWidth="850" pageHeight="1100" math="0" shadow="0">
            <root>
                <mxCell id="0"/>
                <mxCell id="1" parent="0"/>
                <mxCell id="58" style="edgeStyle=none;html=1;fontSize=20;entryX=0.5;entryY=0;entryDx=0;entryDy=0;" edge="1" parent="1" source="2" target="54">
                    <mxGeometry relative="1" as="geometry">
                        <mxPoint x="250" y="250" as="targetPoint"/>
                    </mxGeometry>
                </mxCell>
                <mxCell id="2" value="&lt;font style=&quot;font-size: 20px;&quot;&gt;Redux&lt;/font&gt;" style="text;html=1;align=center;verticalAlign=middle;resizable=0;points=[];autosize=1;strokeColor=none;fillColor=none;" vertex="1" parent="1">
                    <mxGeometry x="180" y="190" width="80" height="40" as="geometry"/>
                </mxCell>
                <mxCell id="3" value="" style="ellipse;whiteSpace=wrap;html=1;fontSize=20;" vertex="1" parent="1">
                    <mxGeometry y="380" width="420" height="400" as="geometry"/>
                </mxCell>
                <mxCell id="44" style="edgeStyle=none;html=1;fontSize=12;" edge="1" parent="1" source="4" target="17">
                    <mxGeometry relative="1" as="geometry"/>
                </mxCell>
                <mxCell id="45" style="edgeStyle=none;html=1;fontSize=12;" edge="1" parent="1" source="4" target="23">
                    <mxGeometry relative="1" as="geometry"/>
                </mxCell>
                <mxCell id="46" style="edgeStyle=none;html=1;fontSize=12;" edge="1" parent="1" source="4" target="39">
                    <mxGeometry relative="1" as="geometry"/>
                </mxCell>
                <mxCell id="47" style="edgeStyle=none;html=1;fontSize=12;" edge="1" parent="1" source="4" target="25">
                    <mxGeometry relative="1" as="geometry"/>
                </mxCell>
                <mxCell id="48" style="edgeStyle=none;html=1;fontSize=12;" edge="1" parent="1" source="4" target="37">
                    <mxGeometry relative="1" as="geometry"/>
                </mxCell>
                <mxCell id="49" style="edgeStyle=none;html=1;fontSize=12;" edge="1" parent="1" source="4" target="29">
                    <mxGeometry relative="1" as="geometry"/>
                </mxCell>
                <mxCell id="50" style="edgeStyle=none;html=1;fontSize=12;" edge="1" parent="1" source="4" target="33">
                    <mxGeometry relative="1" as="geometry"/>
                </mxCell>
                <mxCell id="51" style="edgeStyle=none;html=1;fontSize=12;" edge="1" parent="1" source="4" target="31">
                    <mxGeometry relative="1" as="geometry"/>
                </mxCell>
                <mxCell id="52" style="edgeStyle=none;html=1;fontSize=12;" edge="1" parent="1" source="4" target="27">
                    <mxGeometry relative="1" as="geometry"/>
                </mxCell>
                <mxCell id="4" value="Store" style="text;html=1;align=center;verticalAlign=middle;resizable=0;points=[];autosize=1;strokeColor=none;fillColor=none;fontSize=20;" vertex="1" parent="1">
                    <mxGeometry x="170" y="435" width="70" height="40" as="geometry"/>
                </mxCell>
                <mxCell id="5" value="" style="rounded=0;whiteSpace=wrap;html=1;fontSize=20;" vertex="1" parent="1">
                    <mxGeometry x="40" y="500" width="80" height="40" as="geometry"/>
                </mxCell>
                <mxCell id="17" value="&lt;p style=&quot;line-height: 100%; font-size: 12px;&quot;&gt;&lt;font style=&quot;font-size: 12px;&quot;&gt;State / Slices&lt;/font&gt;&lt;/p&gt;" style="text;html=1;align=center;verticalAlign=middle;resizable=0;points=[];autosize=1;strokeColor=none;fillColor=none;fontSize=20;" vertex="1" parent="1">
                    <mxGeometry x="35" y="495" width="90" height="50" as="geometry"/>
                </mxCell>
                <mxCell id="22" value="" style="rounded=0;whiteSpace=wrap;html=1;fontSize=20;" vertex="1" parent="1">
                    <mxGeometry x="165" y="500" width="80" height="40" as="geometry"/>
                </mxCell>
                <mxCell id="23" value="&lt;p style=&quot;line-height: 100%; font-size: 12px;&quot;&gt;&lt;font style=&quot;font-size: 12px;&quot;&gt;State&lt;/font&gt;&lt;/p&gt;" style="text;html=1;align=center;verticalAlign=middle;resizable=0;points=[];autosize=1;strokeColor=none;fillColor=none;fontSize=20;" vertex="1" parent="1">
                    <mxGeometry x="180" y="495" width="50" height="50" as="geometry"/>
                </mxCell>
                <mxCell id="24" value="" style="rounded=0;whiteSpace=wrap;html=1;fontSize=20;" vertex="1" parent="1">
                    <mxGeometry x="40" y="565" width="80" height="40" as="geometry"/>
                </mxCell>
                <mxCell id="25" value="&lt;p style=&quot;line-height: 100%; font-size: 12px;&quot;&gt;&lt;font style=&quot;font-size: 12px;&quot;&gt;State&lt;/font&gt;&lt;/p&gt;" style="text;html=1;align=center;verticalAlign=middle;resizable=0;points=[];autosize=1;strokeColor=none;fillColor=none;fontSize=20;" vertex="1" parent="1">
                    <mxGeometry x="55" y="560" width="50" height="50" as="geometry"/>
                </mxCell>
                <mxCell id="26" value="" style="rounded=0;whiteSpace=wrap;html=1;fontSize=20;" vertex="1" parent="1">
                    <mxGeometry x="170" y="705" width="80" height="40" as="geometry"/>
                </mxCell>
                <mxCell id="27" value="&lt;p style=&quot;line-height: 100%; font-size: 12px;&quot;&gt;&lt;font style=&quot;font-size: 12px;&quot;&gt;State&lt;/font&gt;&lt;/p&gt;" style="text;html=1;align=center;verticalAlign=middle;resizable=0;points=[];autosize=1;strokeColor=none;fillColor=none;fontSize=20;" vertex="1" parent="1">
                    <mxGeometry x="185" y="700" width="50" height="50" as="geometry"/>
                </mxCell>
                <mxCell id="28" value="" style="rounded=0;whiteSpace=wrap;html=1;fontSize=20;" vertex="1" parent="1">
                    <mxGeometry x="45" y="635" width="80" height="40" as="geometry"/>
                </mxCell>
                <mxCell id="29" value="&lt;p style=&quot;line-height: 100%; font-size: 12px;&quot;&gt;&lt;font style=&quot;font-size: 12px;&quot;&gt;State&lt;/font&gt;&lt;/p&gt;" style="text;html=1;align=center;verticalAlign=middle;resizable=0;points=[];autosize=1;strokeColor=none;fillColor=none;fontSize=20;" vertex="1" parent="1">
                    <mxGeometry x="60" y="630" width="50" height="50" as="geometry"/>
                </mxCell>
                <mxCell id="30" value="" style="rounded=0;whiteSpace=wrap;html=1;fontSize=20;" vertex="1" parent="1">
                    <mxGeometry x="170" y="635" width="80" height="40" as="geometry"/>
                </mxCell>
                <mxCell id="31" value="&lt;p style=&quot;line-height: 100%; font-size: 12px;&quot;&gt;&lt;font style=&quot;font-size: 12px;&quot;&gt;State&lt;/font&gt;&lt;/p&gt;" style="text;html=1;align=center;verticalAlign=middle;resizable=0;points=[];autosize=1;strokeColor=none;fillColor=none;fontSize=20;" vertex="1" parent="1">
                    <mxGeometry x="185" y="630" width="50" height="50" as="geometry"/>
                </mxCell>
                <mxCell id="32" value="" style="rounded=0;whiteSpace=wrap;html=1;fontSize=20;" vertex="1" parent="1">
                    <mxGeometry x="280" y="635" width="80" height="40" as="geometry"/>
                </mxCell>
                <mxCell id="33" value="&lt;p style=&quot;line-height: 100%; font-size: 12px;&quot;&gt;&lt;font style=&quot;font-size: 12px;&quot;&gt;State&lt;/font&gt;&lt;/p&gt;" style="text;html=1;align=center;verticalAlign=middle;resizable=0;points=[];autosize=1;strokeColor=none;fillColor=none;fontSize=20;" vertex="1" parent="1">
                    <mxGeometry x="295" y="630" width="50" height="50" as="geometry"/>
                </mxCell>
                <mxCell id="34" value="" style="rounded=0;whiteSpace=wrap;html=1;fontSize=20;" vertex="1" parent="1">
                    <mxGeometry x="165" y="570" width="80" height="40" as="geometry"/>
                </mxCell>
                <mxCell id="35" value="&lt;p style=&quot;line-height: 100%; font-size: 12px;&quot;&gt;&lt;font style=&quot;font-size: 12px;&quot;&gt;State&lt;/font&gt;&lt;/p&gt;" style="text;html=1;align=center;verticalAlign=middle;resizable=0;points=[];autosize=1;strokeColor=none;fillColor=none;fontSize=20;" vertex="1" parent="1">
                    <mxGeometry x="180" y="565" width="50" height="50" as="geometry"/>
                </mxCell>
                <mxCell id="36" value="" style="rounded=0;whiteSpace=wrap;html=1;fontSize=20;" vertex="1" parent="1">
                    <mxGeometry x="280" y="565" width="80" height="40" as="geometry"/>
                </mxCell>
                <mxCell id="37" value="&lt;p style=&quot;line-height: 100%; font-size: 12px;&quot;&gt;&lt;font style=&quot;font-size: 12px;&quot;&gt;State&lt;/font&gt;&lt;/p&gt;" style="text;html=1;align=center;verticalAlign=middle;resizable=0;points=[];autosize=1;strokeColor=none;fillColor=none;fontSize=20;" vertex="1" parent="1">
                    <mxGeometry x="295" y="560" width="50" height="50" as="geometry"/>
                </mxCell>
                <mxCell id="38" value="" style="rounded=0;whiteSpace=wrap;html=1;fontSize=20;" vertex="1" parent="1">
                    <mxGeometry x="280" y="500" width="80" height="40" as="geometry"/>
                </mxCell>
                <mxCell id="39" value="&lt;p style=&quot;line-height: 100%; font-size: 12px;&quot;&gt;&lt;font style=&quot;font-size: 12px;&quot;&gt;State&lt;/font&gt;&lt;/p&gt;" style="text;html=1;align=center;verticalAlign=middle;resizable=0;points=[];autosize=1;strokeColor=none;fillColor=none;fontSize=20;" vertex="1" parent="1">
                    <mxGeometry x="295" y="495" width="50" height="50" as="geometry"/>
                </mxCell>
                <mxCell id="64" style="edgeStyle=none;html=1;entryX=0.5;entryY=0;entryDx=0;entryDy=0;fontSize=20;" edge="1" parent="1" source="53" target="61">
                    <mxGeometry relative="1" as="geometry"/>
                </mxCell>
                <mxCell id="53" value="&lt;font style=&quot;font-size: 20px;&quot;&gt;Recoil&lt;/font&gt;" style="text;html=1;align=center;verticalAlign=middle;resizable=0;points=[];autosize=1;strokeColor=none;fillColor=none;fontSize=12;" vertex="1" parent="1">
                    <mxGeometry x="540" y="190" width="80" height="40" as="geometry"/>
                </mxCell>
                <mxCell id="54" value="" style="shape=hexagon;perimeter=hexagonPerimeter2;whiteSpace=wrap;html=1;fixedSize=1;fontSize=20;" vertex="1" parent="1">
                    <mxGeometry x="120" y="270" width="190" height="70" as="geometry"/>
                </mxCell>
                <mxCell id="59" style="edgeStyle=none;html=1;fontSize=20;" edge="1" parent="1" source="55" target="4">
                    <mxGeometry relative="1" as="geometry"/>
                </mxCell>
                <mxCell id="55" value="Components" style="text;html=1;align=center;verticalAlign=middle;resizable=0;points=[];autosize=1;strokeColor=none;fillColor=none;fontSize=20;" vertex="1" parent="1">
                    <mxGeometry x="145" y="285" width="140" height="40" as="geometry"/>
                </mxCell>
                <mxCell id="61" value="" style="shape=hexagon;perimeter=hexagonPerimeter2;whiteSpace=wrap;html=1;fixedSize=1;fontSize=20;" vertex="1" parent="1">
                    <mxGeometry x="485" y="270" width="190" height="70" as="geometry"/>
                </mxCell>
                <mxCell id="88" style="edgeStyle=none;html=1;fontSize=20;" edge="1" parent="1" source="62" target="71">
                    <mxGeometry relative="1" as="geometry"/>
                </mxCell>
                <mxCell id="89" style="edgeStyle=none;html=1;fontSize=20;" edge="1" parent="1" source="62" target="79">
                    <mxGeometry relative="1" as="geometry"/>
                </mxCell>
                <mxCell id="90" style="edgeStyle=none;html=1;fontSize=20;" edge="1" parent="1" source="62" target="81">
                    <mxGeometry relative="1" as="geometry"/>
                </mxCell>
                <mxCell id="91" style="edgeStyle=none;html=1;entryX=1;entryY=0.5;entryDx=0;entryDy=0;fontSize=20;" edge="1" parent="1" source="62" target="82">
                    <mxGeometry relative="1" as="geometry"/>
                </mxCell>
                <mxCell id="92" style="edgeStyle=none;html=1;entryX=0;entryY=0.25;entryDx=0;entryDy=0;fontSize=20;" edge="1" parent="1" source="62" target="84">
                    <mxGeometry relative="1" as="geometry"/>
                </mxCell>
                <mxCell id="93" style="edgeStyle=none;html=1;entryX=-0.033;entryY=0.313;entryDx=0;entryDy=0;entryPerimeter=0;fontSize=20;" edge="1" parent="1" source="62" target="87">
                    <mxGeometry relative="1" as="geometry"/>
                </mxCell>
                <mxCell id="62" value="Components" style="text;html=1;align=center;verticalAlign=middle;resizable=0;points=[];autosize=1;strokeColor=none;fillColor=none;fontSize=20;" vertex="1" parent="1">
                    <mxGeometry x="510" y="285" width="140" height="40" as="geometry"/>
                </mxCell>
                <mxCell id="70" value="" style="rounded=0;whiteSpace=wrap;html=1;fontSize=20;" vertex="1" parent="1">
                    <mxGeometry x="470" y="495" width="80" height="40" as="geometry"/>
                </mxCell>
                <mxCell id="71" value="&lt;p style=&quot;line-height: 100%; font-size: 12px;&quot;&gt;&lt;font style=&quot;font-size: 12px;&quot;&gt;State / Atoms&lt;/font&gt;&lt;/p&gt;" style="text;html=1;align=center;verticalAlign=middle;resizable=0;points=[];autosize=1;strokeColor=none;fillColor=none;fontSize=20;" vertex="1" parent="1">
                    <mxGeometry x="465" y="490" width="90" height="50" as="geometry"/>
                </mxCell>
                <mxCell id="78" value="" style="rounded=0;whiteSpace=wrap;html=1;fontSize=20;" vertex="1" parent="1">
                    <mxGeometry x="590" y="500" width="80" height="40" as="geometry"/>
                </mxCell>
                <mxCell id="79" value="&lt;p style=&quot;line-height: 100%; font-size: 12px;&quot;&gt;&lt;font style=&quot;font-size: 12px;&quot;&gt;State&lt;/font&gt;&lt;/p&gt;" style="text;html=1;align=center;verticalAlign=middle;resizable=0;points=[];autosize=1;strokeColor=none;fillColor=none;fontSize=20;" vertex="1" parent="1">
                    <mxGeometry x="605" y="495" width="50" height="50" as="geometry"/>
                </mxCell>
                <mxCell id="80" value="" style="rounded=0;whiteSpace=wrap;html=1;fontSize=20;" vertex="1" parent="1">
                    <mxGeometry x="720" y="505" width="80" height="40" as="geometry"/>
                </mxCell>
                <mxCell id="81" value="&lt;p style=&quot;line-height: 100%; font-size: 12px;&quot;&gt;&lt;font style=&quot;font-size: 12px;&quot;&gt;State&lt;/font&gt;&lt;/p&gt;" style="text;html=1;align=center;verticalAlign=middle;resizable=0;points=[];autosize=1;strokeColor=none;fillColor=none;fontSize=20;" vertex="1" parent="1">
                    <mxGeometry x="735" y="500" width="50" height="50" as="geometry"/>
                </mxCell>
                <mxCell id="82" value="" style="rounded=0;whiteSpace=wrap;html=1;fontSize=20;" vertex="1" parent="1">
                    <mxGeometry x="470" y="570" width="80" height="40" as="geometry"/>
                </mxCell>
                <mxCell id="83" value="&lt;p style=&quot;line-height: 100%; font-size: 12px;&quot;&gt;&lt;font style=&quot;font-size: 12px;&quot;&gt;State&lt;/font&gt;&lt;/p&gt;" style="text;html=1;align=center;verticalAlign=middle;resizable=0;points=[];autosize=1;strokeColor=none;fillColor=none;fontSize=20;" vertex="1" parent="1">
                    <mxGeometry x="485" y="565" width="50" height="50" as="geometry"/>
                </mxCell>
                <mxCell id="84" value="" style="rounded=0;whiteSpace=wrap;html=1;fontSize=20;" vertex="1" parent="1">
                    <mxGeometry x="590" y="575" width="80" height="40" as="geometry"/>
                </mxCell>
                <mxCell id="85" value="&lt;p style=&quot;line-height: 100%; font-size: 12px;&quot;&gt;&lt;font style=&quot;font-size: 12px;&quot;&gt;State&lt;/font&gt;&lt;/p&gt;" style="text;html=1;align=center;verticalAlign=middle;resizable=0;points=[];autosize=1;strokeColor=none;fillColor=none;fontSize=20;" vertex="1" parent="1">
                    <mxGeometry x="605" y="570" width="50" height="50" as="geometry"/>
                </mxCell>
                <mxCell id="86" value="" style="rounded=0;whiteSpace=wrap;html=1;fontSize=20;" vertex="1" parent="1">
                    <mxGeometry x="710" y="580" width="80" height="40" as="geometry"/>
                </mxCell>
                <mxCell id="87" value="&lt;p style=&quot;line-height: 100%; font-size: 12px;&quot;&gt;&lt;font style=&quot;font-size: 12px;&quot;&gt;State&lt;/font&gt;&lt;/p&gt;" style="text;html=1;align=center;verticalAlign=middle;resizable=0;points=[];autosize=1;strokeColor=none;fillColor=none;fontSize=20;" vertex="1" parent="1">
                    <mxGeometry x="725" y="575" width="50" height="50" as="geometry"/>
                </mxCell>
            </root>
        </mxGraphModel>
    </diagram>
</mxfile>